<svg xmlns="http://www.w3.org/2000/svg" viewBox="0 0 508 508"><path d="M450.6 166.8v29.3l-98.3-98.3-81.9 82L95.9 5.3 84.3 16.9l186.1 186 81.9-81.9 86.8 86.7h-29.4v16.4H467v-57.3z" fill="#174183"/><path d="M491.6 486.3V371.6h-81.9v114.7h-16.4V240.5h-81.9v245.8H295V289.7h-82v196.6h-16.4V175h-81.9v311.4H98.3V125.8H16.4v360.5H0v16.4h508v-16.4h-16.4zm-409.6 0H32.8V142.2H82v344.1zm98.3 0h-49.2v-295h49.2v295zm98.3.1h-49.2V306.1h49.2v180.3zm98.3-.1h-49.2V256.9h49.2v229.4zm98.4 0h-49.2V388h49.2v98.3z" fill="#174183"/></svg>