<svg xmlns="http://www.w3.org/2000/svg" height="512" viewBox="0 0 64 64" width="512"><path d="M4.259 58.006l.01.002h55.463l.01-.002a4.289 4.289 0 0 0 4.274-4.284c0-.941-.321-1.857-.894-2.605-.003-.003-.003-.008-.005-.012L35.543 7.869l-.013-.013c-.003-.006-.003-.012-.007-.017C34.728 6.683 33.41 5.992 32 5.992s-2.728.69-3.523 1.848c-.004.005-.004.011-.007.017l-.013.013L.883 51.104c-.002.004-.002.009-.005.012a4.302 4.302 0 0 0-.894 2.605 4.29 4.29 0 0 0 4.275 4.285zM32 7.992c.75 0 1.45.366 1.874.979l27.558 43.21c.014.021.033.038.049.059.008.011.01.024.019.035a2.287 2.287 0 0 1-1.767 3.732l-.005.001H4.273l-.005-.001a2.287 2.287 0 0 1-1.767-3.732c.009-.011.011-.024.019-.035.016-.021.035-.037.049-.059l27.558-43.21A2.273 2.273 0 0 1 32 7.992z" fill="#fff"/><path d="M3.354 52.78l-.08.129a1.286 1.286 0 0 0 .904 2.095l55.544.004.102-.004a1.286 1.286 0 0 0 .907-2.094l-.093-.144a1.336 1.336 0 0 0-.085-.104l-27.53-43.16c-.484-.648-1.518-.71-2.088.062l-27.489 43.1a1.142 1.142 0 0 0-.092.116zm28.644-41.171L58.4 53.008H5.599z" fill="#fff"/><path d="M37.909 37.423c.011-.023.014-.05.022-.074a.958.958 0 0 0 .064-.318c0-.005.003-.009.003-.014 0-.014-.007-.025-.008-.038a1.012 1.012 0 0 0-.065-.327c-.011-.026-.026-.049-.039-.074a.974.974 0 0 0-.16-.238c-.03-.032-.065-.055-.1-.083-.047-.039-.084-.087-.14-.117-.021-.011-.043-.01-.063-.02-.049-.023-.103-.033-.155-.048-.074-.021-.145-.042-.22-.045-.018-.001-.032-.01-.05-.01h-8.296l5.188-9.52a.998.998 0 1 0-1.755-.957L26.15 36.522a.974.974 0 0 0-.149.494c0 .373.213.686.516.857.01.006.015.016.024.021l.015.006a1.234 1.234 0 0 0 .418.111c.01.001.018.006.027.006h8.324l-4.088 7.5-.271-.815a1.002 1.002 0 0 0-1.899.631l.998 2.998c.037.11.093.209.16.296.014.018.032.029.047.046a.986.986 0 0 0 .228.19c.014.008.021.022.036.03.037.021.076.03.114.045.029.012.056.024.086.033a.988.988 0 0 0 .277.044h.001l.005-.001a.98.98 0 0 0 .284-.046c.009-.002.018-.001.026-.004l3.001-.998a1.002 1.002 0 0 0-.631-1.899l-.593.197 4.779-8.77c.014-.022.013-.048.024-.071z" fill="#fff"/></svg>