<svg xmlns="http://www.w3.org/2000/svg" height="512pt" viewBox="-52 0 512 512" width="512pt"><path d="M408 248v60c0 36.309-9.664 71.969-27.95 103.125-5.59 9.523-17.847 12.715-27.37 7.125-9.528-5.594-12.72-17.848-7.125-27.371C360.238 365.855 368 337.195 368 308v-60c0-11.027-8.973-20-20-20H60c-11.027 0-20 8.973-20 20v60c0 90.43 73.57 164 164 164 26.738 0 52.223-6.223 75.746-18.5 9.793-5.11 21.875-1.313 26.984 8.48s1.313 21.875-8.476 26.985C269.37 504.035 236.777 512 204 512 91.516 512 0 420.484 0 308v-60c0-33.086 26.914-60 60-60h33V97.973C93 43.949 137.86 0 193 0h21c55.14 0 100 43.95 100 97.973V128c0 11.047-8.953 20-20 20s-20-8.953-20-20V97.973C274 66.008 247.086 40 214 40h-21c-33.086 0-60 26.008-60 57.973V188h215c33.086 0 60 26.914 60 60zM203.965 410c11.043 0 20-8.953 20-20v-43.855C234.207 339.566 241 328.078 241 315c0-20.434-16.566-37-37-37s-37 16.566-37 37c0 13.047 6.762 24.512 16.965 31.098V390c0 11.047 8.953 20 20 20zm0 0" fill="#fff"/></svg>