<svg xmlns="http://www.w3.org/2000/svg" height="512pt" viewBox="-45 0 512 512" width="512pt"><path d="M415.3 167.438h-43.51a7.5 7.5 0 0 0 0 15h43.51c4.141 0 7.5-3.36 7.5-7.5s-3.359-7.5-7.5-7.5zm-43.51-45.786h19.753a7.5 7.5 0 1 0 0-15h-19.754a7.5 7.5 0 1 0 0 15zm0-60.789h26.753c4.145 0 7.5-3.355 7.5-7.5a7.5 7.5 0 0 0-7.5-7.5h-26.754a7.5 7.5 0 1 0 0 15zm26.757 228.149h-26.758a7.5 7.5 0 1 0 0 15h26.758a7.5 7.5 0 1 0 0-15zm-26.757-45.789h19.753a7.5 7.5 0 1 0 0-15h-19.754a7.5 7.5 0 1 0 0 15zm0 0" fill="#174183"/><path d="M339.227 309.805V67.84c0-37.406-30.43-67.84-67.84-67.84-37.403 0-67.836 30.434-67.836 67.84v241.965c-28.024 21.226-44.64 54.468-44.64 89.718 0 62.02 50.456 112.477 112.476 112.477 62.023 0 112.48-50.457 112.48-112.477 0-35.25-16.613-68.492-44.64-89.718zM271.387 497c-53.746 0-97.477-43.727-97.477-97.477 0-31.687 15.5-61.511 41.457-79.773a7.507 7.507 0 0 0 3.184-6.137V67.84c0-29.137 23.703-52.84 52.836-52.84 29.136 0 52.84 23.703 52.84 52.84v245.773a7.507 7.507 0 0 0 3.183 6.137c25.957 18.266 41.457 48.086 41.457 79.773 0 53.75-43.73 97.477-97.48 97.477zm0 0" fill="#174183"/><path d="M304.219 324.668V67.84c0-18.106-14.727-32.832-32.832-32.832-18.102 0-32.828 14.726-32.828 32.832v192.617c0 4.145 3.359 7.5 7.5 7.5s7.5-3.355 7.5-7.5V121.652h35.66v208.036a7.503 7.503 0 0 0 4.879 7.03c25.297 9.423 42.289 33.895 42.289 60.9 0 35.843-29.157 65-65 65-35.84 0-65-29.157-65-65 0-27.005 16.996-51.477 42.289-60.9a7.505 7.505 0 0 0 4.883-7.03v-39.223c0-4.14-3.36-7.5-7.5-7.5s-7.5 3.36-7.5 7.5v34.203c-28.418 12.805-47.172 41.484-47.172 72.95 0 44.112 35.89 80 80 80 44.113 0 80-35.888 80-80 0-31.466-18.75-60.141-47.168-72.95zm-50.66-218.016V67.84c0-9.832 8-17.832 17.832-17.832 9.828 0 17.828 8 17.828 17.832v38.812zm-92.735 53.516c11.196 1.027 16.028-13.871 6.375-19.61-11.738-6.976-11.758-23.972 0-30.96 9.66-5.746 4.809-20.641-6.375-19.614-13.61 1.262-23.594-12.5-18.199-25.046 4.441-10.325-8.242-19.528-16.68-12.122-10.261 9.008-26.437 3.774-29.449-9.566-2.476-10.965-18.144-10.953-20.617 0-3.008 13.316-19.168 18.586-29.45 9.566-8.44-7.414-21.117 1.801-16.679 12.121 5.402 12.56-4.602 26.305-18.2 25.047-11.19-1.02-16.027 13.871-6.37 19.614 11.754 6.988 11.73 23.988-.004 30.96-9.649 5.739-4.82 20.633 6.375 19.61 13.594-1.262 23.601 12.488 18.199 25.047-4.441 10.324 8.242 19.527 16.68 12.12 10.261-9.007 26.437-3.769 29.449 9.567 2.476 10.965 18.144 10.953 20.617 0 3.008-13.316 19.172-18.59 29.45-9.566 8.445 7.41 21.12-1.805 16.679-12.121-5.39-12.531 4.582-26.305 18.2-25.047zm-9.91-14.063c-15.133 3.86-25.742 18.258-24.723 34.028-14.511-5.774-31.554-.36-40 13-8.359-13.223-25.336-18.836-40.004-13 1.012-15.621-9.437-30.13-24.722-34.028 9.976-12.015 10.094-29.898 0-42.058 15.203-3.875 25.738-18.32 24.723-34.027 14.542 5.785 31.574.335 40.003-12.997 8.383 13.262 25.375 18.813 40 12.997-1.011 15.62 9.438 30.128 24.723 34.027-10.027 12.078-10.05 29.957 0 42.058zm0 0" fill="#174183"/><path d="M86.188 83.727c-22.801 0-41.348 18.55-41.348 41.351s18.547 41.352 41.347 41.352 41.352-18.551 41.352-41.352-18.55-41.351-41.352-41.351zm0 67.699c-14.528 0-26.348-11.82-26.348-26.348 0-14.531 11.82-26.351 26.347-26.351 14.532 0 26.352 11.82 26.352 26.351 0 14.527-11.82 26.348-26.352 26.348zm0 0" fill="#174183"/></svg>