<svg xmlns="http://www.w3.org/2000/svg" width="484.032" height="484.032"><path d="M200.811 400.709v-45.331h59.7l-10.999-14.32h-48.701v-47.004h107.376v26.268l13.479 5.328V177.303c0-1.872.352-3.653.831-5.368v-9.823h6.402c3.437-2.867 7.811-4.662 12.63-4.662h58.486c4.818 0 9.192 1.795 12.629 4.662h20.009v53.686h-12.78v14.317h12.78v49.629h-12.78v14.313h12.78v26.547l14.315-5.659V32.873c0-9.207-7.491-16.698-16.693-16.698H16.698C7.485 16.175 0 23.672 0 32.873v365.862c0 5.65 2.84 10.636 7.154 13.661v2.633h5.989c1.149.253 2.331.398 3.554.398h289.986l-11.322-14.719h-94.55zM322.503 30.484h107.76a2.395 2.395 0 0 1 2.391 2.389v48.12h-110.15V30.484zm0 64.822h110.15v52.493h-110.15V95.306zM200.811 30.484h107.376v50.509H200.811V30.484zm0 64.822h107.376v52.493H200.811V95.306zm0 66.807h107.376v53.686H200.811v-53.686zm0 68.003h107.376v49.629H200.811v-49.629zM66.006 400.709H15.458c-.673-.416-1.149-1.133-1.149-1.987v-43.344h51.697v45.331zm0-59.651H14.309v-47.004h51.697v47.004zm0-61.313H14.309v-49.629h51.697v49.629zm0-63.946H14.309v-53.686h51.697v53.686zm0-68H14.309V95.306h51.697v52.493zm120.488 252.91H80.319v-45.331h106.175v45.331zm0-59.651H80.319v-47.004h106.175v47.004zm0-61.313H80.319v-49.629h106.175v49.629zm0-63.946H80.319v-53.686h106.175v53.686zm0-68H80.319V95.306h106.175v52.493zm0-66.811H80.319v-50.51h106.175v50.51zm296.323 241.236l-110.2 143.355a5.894 5.894 0 0 1-4.646 2.278 5.882 5.882 0 0 1-4.643-2.278l-110.2-143.355a5.822 5.822 0 0 1-1.22-3.568c0-1.242.394-2.471 1.178-3.522a5.853 5.853 0 0 1 6.816-1.917l72.969 28.832V173.101a5.845 5.845 0 0 1 5.855-5.844h58.486a5.85 5.85 0 0 1 5.85 5.844v168.942l72.969-28.832a5.847 5.847 0 0 1 6.822 1.922 5.848 5.848 0 0 1-.036 7.091z" fill="#174183"/></svg>