<svg xmlns="http://www.w3.org/2000/svg" height="512pt" viewBox="0 0 512 512" width="512pt"><path d="M397 77c-26.36 0-52.121 9.148-72.531 25.758-16.426 13.367-28.864 31.086-35.887 50.86C269.602 142.71 248.222 137 226 137c-27.93 0-54.39 8.953-76.516 25.887-18.468 14.136-32.8 33.363-41.125 54.933A50.002 50.002 0 0 0 95 216c-27.57 0-50 22.43-50 50 0 2.293.156 4.574.469 6.836C17.94 286 0 313.969 0 345c0 44.113 35.887 80 80 80 8.668 0 17.098-1.355 25.164-4.035 7.496 14.488 18.414 26.918 31.984 36.312C153.898 468.871 173.558 475 194 475c10.734 0 21.188-1.668 31.203-4.965C234.586 494.934 258.527 512 286 512c35.84 0 65-29.16 65-65 0-4.77-.516-9.477-1.54-14.082a34.842 34.842 0 0 0 18.423-28.04C402.195 388.173 424 353.614 424 315c0-3.691-.203-7.387-.61-11.055 23.227-5.468 44.325-18.12 60.208-36.28A114.888 114.888 0 0 0 512 192c0-63.41-51.59-115-115-115zm13.555 209.035c-.035.004-.067.016-.102.02-4.426.625-8.95.945-13.453.945-5.523 0-10 4.477-10 10s4.477 10 10 10c2.191 0 4.387-.078 6.578-.203.277 2.723.422 5.465.422 8.203 0 32.77-19.629 61.887-50.008 74.184a10 10 0 0 0-6.148 10.675c1.101 7.762-4.309 15.602-12.371 16.934-6.168 1.02-9.973 7.773-7.664 13.566A44.78 44.78 0 0 1 331 447c0 24.813-20.188 45-45 45-21.852 0-40.477-15.594-44.29-37.082-1.128-6.363-8.218-10.035-14.058-7.324C217.07 452.508 205.75 455 194 455c-33.04 0-62.246-19.848-74.41-50.559-.059-.148-.13-.285-.195-.425-.047-.145-.086-.29-.141-.43C115.77 394.473 114 384.856 114 375c0-5.523-4.477-10-10-10s-10 4.477-10 10a99.823 99.823 0 0 0 3.781 27.305A59.675 59.675 0 0 1 80 405c-33.086 0-60-26.914-60-60 0-22.55 12.637-42.934 32.195-53.16a49.912 49.912 0 0 0 7.45 9.515c3.66 3.66 10.285 3.86 14.14 0 3.906-3.906 3.906-10.238 0-14.14C68.301 281.727 65 273.75 65 266c0-16.543 13.457-30 30-30 5.316 0 10.602 1.46 15.184 4.148 6.117 3.582 12.761 12.047 20.171 4.637 3.907-3.902 3.907-10.234 0-14.14a50.395 50.395 0 0 0-4.066-3.641C141.305 185.454 181.312 157 226 157c20.59 0 40.309 5.844 57.426 16.918A115.968 115.968 0 0 0 282 192c0 5.523 4.477 10 10 10s10-4.477 10-10c0-6.914.75-13.793 2.223-20.5C313.715 128.332 352.73 97 397 97c52.383 0 95 42.617 95 95 0 46.98-35.012 87.406-81.445 94.035zM105 159c22.055 0 40-17.945 40-40s-17.945-40-40-40-40 17.945-40 40 17.945 40 40 40zm0-60c11.027 0 20 8.973 20 20s-8.973 20-20 20-20-8.973-20-20 8.973-20 20-20zm120 1c27.57 0 50-22.43 50-50S252.57 0 225 0s-50 22.43-50 50 22.43 50 50 50zm0-80c16.543 0 30 13.457 30 30s-13.457 30-30 30-30-13.457-30-30 13.457-30 30-30zm0 0" fill="#fff"/><path d="M254.828 240.93c-6.734-5.785-15.734-8.684-26.992-8.684-11.266 0-20.234 2.895-26.918 8.684-6.684 5.789-10.023 14.945-10.023 27.468v44.043c0 12.528 3.34 21.684 10.023 27.47 6.684 5.788 15.652 8.683 26.918 8.683 11.258 0 20.258-2.895 26.992-8.684 6.734-5.785 10.106-14.941 10.106-27.469v-44.043c0-12.523-3.372-21.68-10.106-27.468zm-10.418 71.51c0 12.106-5.527 18.153-16.574 18.153-10.95 0-16.422-6.051-16.422-18.153v-44.043c0-12.101 5.473-18.156 16.422-18.156 11.047 0 16.574 6.055 16.574 18.156zm69.317 32.322c2.246-1.02 3.992-2.86 5.238-5.528s1.867-5.8 1.867-9.394c0-10.809-6.379-16.215-19.133-16.215-3.61 0-6.77.516-9.476 1.54-2.707 1.026-4.77 2.355-6.184 3.987-1.41 1.63-2.45 3.309-3.11 5.028-.663 1.722-.995 3.457-.995 5.21 0 1.973.375 3.305 1.128 3.993s2.391 1.031 4.918 1.031c3.73 0 5.598-1.496 5.598-4.488 0-4.008 2.676-6.012 8.031-6.012 5.293 0 7.942 2.633 7.942 7.899 0 3.53-.719 5.878-2.149 7.046-1.433 1.168-3.465 1.75-6.09 1.75-2.332 0-3.492 1.532-3.492 4.602 0 3.07 1.14 4.605 3.43 4.605 6.617 0 9.926 2.856 9.926 8.57v1.716c0 3.43-.766 5.914-2.301 7.445-1.535 1.535-3.984 2.305-7.355 2.305-2.887 0-5.176-.59-6.86-1.762-1.683-1.176-2.523-2.781-2.523-4.828 0-1.504-.422-2.57-1.266-3.203-.844-.633-2.437-.95-4.781-.95-2.047 0-3.492.332-4.332.993-.844.664-1.266 1.867-1.266 3.609 0 4.215 1.762 8.004 5.281 11.375 3.52 3.367 8.676 5.05 15.477 5.05 6.437 0 11.656-1.624 15.656-4.87 4-3.25 6.004-8.305 6.004-15.164v-1.715c-.004-6.676-3.062-11.219-9.183-13.625zm0 0" fill="#fff"/></svg>