<svg xmlns="http://www.w3.org/2000/svg" height="512pt" viewBox="-91 0 512 512" width="512pt"><path d="M329.637 74.922C329.637 33.609 296.027 0 254.719 0h-69.2c-24.164 48.328-30.812 61.43-87.238 98.074-20.863 13.551-44.511 28.91-68.488 53.508-26.984 27.68-36.848 67.574-24.586 106.55 13.488 42.868 53.547 71.516 99.86 71.513h.87c31.461-.247 49.329-11.192 63.68-19.989 10.399-6.37 16.696-9.976 25.164-9.976 7.852 0 10.824 2.812 17.383 9.742 7.957 8.406 18.852 19.918 41.645 20.219.316.004.636.007.953.007 34.87 0 66.261-25.27 73.246-59.128a77.317 77.317 0 0 0 1.574-18.024h.055zM298.66 264.465c-4.133 20.02-23.644 35.48-44.457 35.21-10.129-.132-13.73-3.94-20.277-10.855-7.63-8.062-18.082-19.11-39.145-19.11-17.332 0-29.273 7.317-40.82 14.395-12.918 7.915-25.117 15.391-48.254 15.57-.215 0-.422.005-.633.005-33.152 0-61.75-20.246-71.277-50.54-8.738-27.78-2.172-56.503 17.453-76.64 21.648-22.207 42.852-35.977 63.355-49.293 42.657-27.703 65.528-45.437 89.438-93.238h50.676c24.785 0 44.953 20.164 44.953 44.949V194.77c-12.832-9.645-28.512-14.961-44.953-14.961-20.012 0-38.824 7.789-52.977 21.941l21.192 21.191c8.488-8.492 19.777-13.168 31.785-13.168 27.617.004 50.047 25.086 43.941 54.692zM98.953 367.191L82.332 392.13c5.95 3.969 9.363 10.348 9.363 17.5s-3.414 13.531-9.363 17.5a50.893 50.893 0 0 0-22.71 42.433A50.895 50.895 0 0 0 82.331 512l16.621-24.934c-5.95-3.968-9.367-10.347-9.367-17.503 0-7.153 3.418-13.532 9.367-17.5 14.223-9.481 22.711-25.344 22.711-42.434s-8.488-32.957-22.71-42.438zm74.922 0L157.25 392.13c5.953 3.969 9.367 10.348 9.367 17.5s-3.414 13.531-9.367 17.5a50.902 50.902 0 0 0-22.71 42.433A50.904 50.904 0 0 0 157.25 512l16.625-24.934c-5.953-3.968-9.367-10.347-9.367-17.503 0-7.153 3.414-13.532 9.367-17.5 14.219-9.481 22.71-25.344 22.71-42.434s-8.491-32.957-22.71-42.438zm74.918 0l-16.621 24.938c5.95 3.969 9.363 10.348 9.363 17.5s-3.414 13.531-9.363 17.5a50.893 50.893 0 0 0-22.711 42.433A50.895 50.895 0 0 0 232.17 512l16.622-24.934c-5.95-3.968-9.367-10.347-9.367-17.503 0-7.153 3.418-13.532 9.367-17.5 14.223-9.481 22.71-25.344 22.71-42.434s-8.487-32.957-22.71-42.438zm0 0" fill="#174183"/></svg>